<svg xmlns="http://www.w3.org/2000/svg" width="885.333" height="1306.667" viewBox="0 0 664 980">
    <path d="M299.1 1c-40.6 3.4-66.1 11.8-86.6 28.7-12.3 10.1-22 23.4-40.3 54.9l-17.3 29.5c-8.9 14.9-21.8 40.6-26.7 53.2-5.2 13.4-8.5 24.5-12 40.7-2.4 11.7-2.6 14.2-2.6 38-.1 20.3.3 27.4 1.7 35 8 42.8 24.1 80.6 53.7 126.7 9.7 15.1 39.3 58.8 56.5 83.4l7.3 10.5-12.1 16-200 266.8C.9 811.5.5 812.4 1.2 829.9c.6 13.3-1.2 7.6 22.6 73.1 21.1 58.3 21 58.1 23.6 62 6.5 9.9 14.1 14.4 24.1 14.5 5.8 0 7.8-.5 12.1-2.9 2.9-1.5 6.8-4.4 8.7-6.5 1.9-2 18.9-24.7 37.8-50.6l192.4-265.3c4.8-6.7 9.1-12.1 9.6-12 .4.2 17.9 24 38.8 53l200.8 274.9c11.7 12.1 26.4 13 38.3 2.2 2.8-2.5 6.3-6.9 7.7-9.7s10.7-27.4 20.5-54.6c26.6-73.3 24.2-65.2 24.2-81 .1-12.1-.1-14-2.2-18-1.2-2.5-9.9-15.1-19.4-28L440.2 513.5l-9.1-11.9 5.3-7.6c29.1-41.5 59.1-86.6 70.1-105 23.8-40.1 39-81.6 43.5-119 1.5-12.3 1.2-37.1-.5-50.2-4.6-34.8-16.7-65.6-43.8-111.5L490 81.5c-8.7-15.2-19.7-31.7-26.4-39.7-18.7-22.4-43.8-34-84.7-39.3C364.4.6 315.1-.3 299.1 1zM349 149c27 1.8 48.3 7 65.4 15.8 13.1 6.7 25.6 17.3 25.6 21.7 0 2.1-24 50.1-35 70-20.3 36.7-42 70.7-62.8 98.9l-10.3 13.8-9.2-12.3c-21.9-29.7-45.6-67.1-65.7-104-13.1-23.9-33-64.3-33-66.7 0-1.1 2.2-4.2 4.9-6.9 16.3-16.6 47.3-27.7 83.9-30.2 17-1.2 20.2-1.2 36.2-.1z"/>
</svg>
